<?xml version="1.0" ?><!DOCTYPE svg  PUBLIC '-//W3C//DTD SVG 1.1//EN'  'http://www.w3.org/Graphics/SVG/1.1/DTD/svg11.dtd'>
<svg enable-background="new 0 0 128 128" id="rooms" version="1.1" viewBox="0 -78 512 512" xml:space="preserve" xmlns="http://www.w3.org/2000/svg" xmlns:xlink="http://www.w3.org/1999/xlink">
    <title>bed</title><path d="m486.667969 201v-22.824219c0-32.445312-26.398438-58.84375-58.847657-58.84375h-229.152343v-20.910156c0-24.125-19.628907-43.753906-43.753907-43.753906h-46.160156c-4.804687 0-9.425781.789062-13.753906 2.226562v-56.894531h-95v356.238281h30v-60.585937h452v60.585937h30v-155.238281zm-58.847657-51.667969c15.90625 0 28.847657 12.9375 28.847657 28.84375v22.824219h-361.667969v-51.667969zm-319.066406-64.667969h46.160156c7.582032 0 13.753907 6.171876 13.753907 13.753907v20.914062h-73.667969v-20.910156c0-7.585937 6.171875-13.757813 13.753906-13.757813zm-78.753906-54.664062h35v171h-35zm0 201h452v34.652344h-452zm0 0" fill="#6f5c56"/>
</svg>