<?xml version="1.0" ?><!DOCTYPE svg  PUBLIC '-//W3C//DTD SVG 1.1//EN'  'http://www.w3.org/Graphics/SVG/1.1/DTD/svg11.dtd'>
<svg enable-background="new 0 0 128 128" id="sauna" version="1.1" viewBox="0 0 512 512" xml:space="preserve" xmlns="http://www.w3.org/2000/svg" xmlns:xlink="http://www.w3.org/1999/xlink">
    <title>shower</title>
    <g>
        <g>
            <path d="M407.468,173.3c-24.034-17.828-51.731-29.147-81.106-34.399c1.276-2.209,2.019-4.766,2.019-7.5 c0-8.299-6.728-15.027-15.027-15.027h-11.325C294.677,50.991,239.057,0,171.743,0C99.443,0,40.624,58.819,40.624,131.119v365.854 c0,8.299,6.728,15.027,15.027,15.027c8.299,0,15.027-6.728,15.027-15.027V131.119c0-55.728,45.337-101.064,101.064-101.064 c50.719,0,92.826,37.557,99.985,86.32h-9.412c-8.299,0-15.027,6.728-15.027,15.027c0,2.602,0.662,5.048,1.826,7.183 c-30.056,5.105-58.392,16.518-82.92,34.717c-5.939,4.406-2.78,13.854,4.614,13.854h232.044 C410.249,187.155,413.408,177.706,407.468,173.3z" fill="#6f5c56"/>
        </g>
    </g>
    <g>
        <g>
            <path d="M171.743,295.902c-8.299,0-15.027,6.728-15.027,15.027v38.099c0,8.299,6.728,15.027,15.027,15.027 c8.299,0,15.027-6.728,15.027-15.027v-38.099C186.77,302.63,180.043,295.902,171.743,295.902z" fill="#6f5c56"/>
        </g>
    </g>
    <g> 
        <g>
            <path d="M245.898,323.708c-8.299,0-15.027,6.728-15.027,15.027v38.1c0,8.299,6.728,15.027,15.027,15.027 s15.027-6.728,15.027-15.027v-38.1C260.925,330.436,254.197,323.708,245.898,323.708z" fill="#6f5c56"/>
        </g>
    </g>
    <g>
        <g>
            <path d="M330.192,296.908c-8.299,0-15.027,6.728-15.027,15.027v38.099c0,8.299,6.728,15.027,15.027,15.027 c8.299,0,15.027-6.728,15.027-15.027v-38.099C345.219,303.635,338.492,296.908,330.192,296.908z" fill="#6f5c56"/>
        </g>
    </g>
    <g>
        <g>
            <path d="M412.32,333.476c-8.299,0-15.027,6.728-15.027,15.027v38.099c0,8.299,6.728,15.027,15.027,15.027 c8.299,0,15.027-6.728,15.027-15.027v-38.099C427.347,340.204,420.619,333.476,412.32,333.476z" fill="#6f5c56"/>
        </g>
    </g>
    <g>
        <g>
            <path d="M204.299,408.282c-8.299,0-15.027,6.728-15.027,15.027v38.099c0,8.299,6.728,15.027,15.027,15.027 c8.299,0,15.027-6.728,15.027-15.027v-38.099C219.326,415.01,212.599,408.282,204.299,408.282z" fill="#6f5c56"/>
        </g>
    </g>
    <g>
        <g>
            <path d="M286.59,391.499c-8.299,0-15.027,6.728-15.027,15.027v38.099c0,8.299,6.728,15.027,15.027,15.027 s15.027-6.728,15.027-15.027v-38.099C301.617,398.227,294.889,391.499,286.59,391.499z" fill="#6f5c56"/>
        </g>
    </g>
    <g>
        <g>
            <path d="M366.088,394.715c-8.299,0-15.027,6.728-15.027,15.027v38.099c0,8.299,6.728,15.027,15.027,15.027 c8.299,0,15.027-6.728,15.027-15.027v-38.099C381.115,401.443,374.388,394.715,366.088,394.715z" fill="#6f5c56"/>
        </g>
    </g>
    <g>
        <g>
            <path d="M456.349,212.588H116.831c-8.299,0-15.027,6.728-15.027,15.027c0,8.299,6.728,15.027,15.027,15.027H456.35 c8.299,0,15.026-6.728,15.026-15.027C471.376,219.316,464.648,212.588,456.349,212.588z" fill="#6f5c56"/>
        </g>
    </g>
</svg>