<svg xmlns="http://www.w3.org/2000/svg" xmlns:xlink="http://www.w3.org/1999/xlink" viewBox="0 0 2061.1 372.87">
  <defs>
    <style>
    .ax
      fill: url(#a)

    .bx
      fill: url(#b)

    .cx
      fill: url(#c)

    .dx
      fill: url(#d)

    .ex
      fill: url(#e)

    .fx
      fill: url(#f)

    .gx
      fill: url(#g)

    .hx
      fill: url(#h)

    .ix
      fill: url(#i)

    .j
      fill: url(#j)

    .kx
      fill: url(#k)

    .lx
      fill: url(#l)

    .mx
      fill: url(#m)

    .nx
      fill: url(#n)

    .ox
      fill: url(#o)

    .p
      fill: url(#p)

    .qx
      fill: url(#q)

    .rx
      fill: url(#r)

    .sx
      fill: url(#s)

    .tx
      fill: url(#t)

    .ux
      fill: url(#u)
    </style>
    <linearGradient id="a" x1="294.89" y1="39.82" x2="294.89" y2="214.91" gradientUnits="userSpaceOnUse">
      <stop offset="0" stop-color="#fff" />
      <stop offset="0.52" stop-color="#ffdfff" />
      <stop offset="0.95" stop-color="#d4dcff" />
    </linearGradient>
    <linearGradient id="b" x1="2013.22" y1="0" x2="2013.22" y2="175.09" gradientTransform="matrix(-1, 0, 0, 1, 3753.71, 0)" xlink:href="#a" />
    <linearGradient id="c" x1="358.08" y1="12.86" x2="358.08" y2="187.95" gradientUnits="userSpaceOnUse">
      <stop offset="0" stop-color="#fff" stop-opacity="0.3" />
      <stop offset="0.52" stop-color="#ffdfff" />
      <stop offset="0.95" stop-color="#d4dcff" />
    </linearGradient>
    <linearGradient id="d" x1="208.08" y1="71.01" x2="208.08" y2="246.1" xlink:href="#c" />
    <linearGradient id="e" x1="337.65" y1="139.31" x2="337.65" y2="314.4" xlink:href="#a" />
    <linearGradient id="f" x1="461.03" y1="59.01" x2="461.03" y2="234.11" gradientTransform="translate(32.7 -64.56) rotate(10.49)" xlink:href="#a" />
    <linearGradient id="g" x1="441.08" y1="81.89" x2="441.08" y2="256.98" xlink:href="#c" />
    <linearGradient id="h" x1="487.96" y1="114.29" x2="487.96" y2="289.39" xlink:href="#a" />
    <linearGradient id="i" x1="659.6" y1="96.26" x2="659.6" y2="271.35" xlink:href="#c" />
    <linearGradient id="j" x1="759.05" y1="179.97" x2="759.05" y2="355.06" xlink:href="#a" />
    <linearGradient id="k" x1="826.08" y1="110.23" x2="826.08" y2="285.32" xlink:href="#a" />
    <linearGradient id="l" x1="1053.01" y1="197.78" x2="1053.01" y2="372.87" xlink:href="#a" />
    <linearGradient id="m" x1="1349.57" y1="81.89" x2="1349.57" y2="256.98" gradientUnits="userSpaceOnUse">
      <stop offset="0" stop-color="#fff" stop-opacity="0.7" />
      <stop offset="0.52" stop-color="#ffdfff" />
      <stop offset="0.95" stop-color="#d4dcff" />
    </linearGradient>
    <linearGradient id="n" x1="1330.86" y1="139.31" x2="1330.86" y2="314.4" xlink:href="#a" />
    <linearGradient id="o" x1="1580.49" y1="58.2" x2="1580.49" y2="233.29" xlink:href="#m" />
    <linearGradient id="p" x1="1733.91" y1="139.31" x2="1733.91" y2="314.4" xlink:href="#a" />
    <linearGradient id="q" x1="1900.69" y1="58.2" x2="1900.69" y2="233.29" gradientTransform="matrix(-1, 0, 0, 1, 3753.71, 0)" gradientUnits="userSpaceOnUse">
      <stop offset="0" stop-color="#fff" stop-opacity="0.5" />
      <stop offset="0.52" stop-color="#ffdfff" />
      <stop offset="0.95" stop-color="#d4dcff" />
    </linearGradient>
    <linearGradient id="r" x1="2073.44" y1="85.91" x2="2073.44" y2="261" gradientTransform="matrix(-1, 0, 0, 1, 3753.71, 0)" xlink:href="#a" />
    <linearGradient id="s" x1="2217.87" y1="119.62" x2="2217.87" y2="294.71" gradientTransform="matrix(-1, 0, 0, 1, 3753.71, 0)" xlink:href="#a" />
    <linearGradient id="t" x1="1051.75" y1="81.89" x2="1051.75" y2="256.98" xlink:href="#c" />
    <linearGradient id="u" x1="2588.72" y1="192.33" x2="2588.72" y2="367.42" gradientTransform="matrix(-1, 0, 0, 1, 3753.71, 0)" xlink:href="#a" />
  </defs>
  <title>Ресурс 1</title>
  <path class="ax" d="M254.81,71.85c-19,8-51-9-74-7s-65,11-76,20-18,19-18,28,3,28,18,37,43,19,61,18,34-12,45-10,30,10,36,23,28,33,38,32,55,5.07,69,0,30-9,46-32,5-48,18-58,22-20,46-21,41-19,39-29-5.75-34-40.87-33-70.12,15-90.12,31-21,16-38-1-43-14-54-11S273.81,63.85,254.81,71.85Z" />
  <path class="bx" d="M1780.57,32c19,8,51-9,74-7s65,11,76,20,18,19,18,28-3,28-18,37-43,19-61,18-34-12-45-10-30,10-36,23-28,33-38,32-55,5.07-69,0-30-9-46-32-5-48-18-58-22-20-46-21-41-19-39-29,5.75-34,40.88-33,70.13,15,90.13,31,21,16,38-1,43-14,54-11S1761.57,24,1780.57,32Z" />
  <path class="cx" d="M318,44.89c-19,8-51-9-74-7s-65,11-76,20-18,19-18,28,3,28,18,37,43,19,61,18,34-12,45-10,30,10,36,23,28,33,38,32,55,5.07,69,0,30-9,46-32,5-48,18-58,22-20,46-21,41-19,39-29-5.75-34-40.87-33-70.12,15-90.12,31-21,16-38-1-43-14-54-11S337,36.89,318,44.89Z" />
  <path class="dx" d="M168,103c-19,8-51-9-74-7s-65,11-76,20S0,135,0,144s3,28,18,37,43,19,61,18,34-12,45-10,30,10,36,23,28,33,38,32,55,5.07,69,0,30-9,46-32,5-48,18-58,22-20,46-21,41-19,39-29-5.75-34-40.87-33S305,86,285,102s-21,16-38-1-43-14-54-11S187,95,168,103Z" />
  <path class="ex" d="M297.57,171.34c-19,8-51-9-74-7s-65,11-76,20-18,19-18,28,3,28,18,37,43,19,61,18,34-12,45-10,30,10,36,23,28,33,38,32,55,5.07,69,0,30-9,46-32,5-48,18-58,22-20,46-21,41-19,39-29-5.75-34-40.87-33-70.12,15-90.12,31-21,16-38-1-43-14-54-11S316.57,163.34,297.57,171.34Z" />
  <path class="fx" d="M430,101.64C409.89,106,381.52,83.5,358.54,81.27s-65.92-1-78.37,5.82-21.16,15.4-22.8,24.25-2.15,28.08,11,39.66,38.82,26.51,56.7,28.81,35.62-5.61,46.07-1.64,27.68,15.3,31.21,29.17,21.52,37.55,31.54,38.39,53.16,15,67.84,12.6,31.14-3.42,51.07-23.12,13.66-46.29,28.26-53.75,25.28-15.66,49.06-12.27S673.84,158,673.7,147.79s.54-34.48-34.18-39.89-71.68,2-94.26,14.07-23.56,11.91-37.18-7.9S468.34,92.46,457,93.41,450.17,97.23,430,101.64Z" />
  <path class="gx" d="M401,113.92c-19,8-51-9-74-7s-65,11-76,20-18,19-18,28,3,28,18,37,43,19,61,18,34-12,45-10,30,10,36,23,28,33,38,32,55,5.07,69,0,30-9,46-32,5-48,18-58,22-20,46-21,41-19,39-29-5.75-34-40.87-33-70.12,15-90.12,31-21,16-38-1-43-14-54-11S420,105.92,401,113.92Z" />
  <path class="hx" d="M447.88,146.33c-19,8-51-9-74-7s-65,11-76,20-18,19-18,28,3,28,18,37,43,19,61,18,34-12,45-10,30,10,36,23,28,33,38,32,55,5.07,69,0,30-9,46-32,5-48,18-58,22-20,46-21,41-19,39-29-5.75-34-40.87-33-70.12,15-90.12,31-21,16-38-1-43-14-54-11S466.88,138.33,447.88,146.33Z" />
  <path class="i" d="M619.52,128.29c-19,8-51-9-74-7s-65,11-76,20-18,19-18,28,3,28,18,37,43,19,61,18,34-12,45-10,30,10,36,23,28,33,38,32,55,5.07,69,0,30-9,46-32,5-48,18-58,22-20,46-21,41-19,39-29-5.75-34-40.87-33-70.12,15-90.12,31-21,16-38-1-43-14-54-11S638.52,120.29,619.52,128.29Z" />
  <path class="jx" d="M719,212c-19,8-51-9-74-7s-65,11-76,20-18,19-18,28,3,28,18,37,43,19,61,18,34-12,45-10,30,10,36,23,28,33,38,32,55,5.07,69,0,30-9,46-32,5-48,18-58,22-20,46-21,41-19,39-29-5.75-34-40.87-33S856,195,836,211s-21,16-38-1-43-14-54-11S738,204,719,212Z" />
  <path class="kx" d="M786,142.26c-19,8-51-9-74-7s-65,11-76,20-18,19-18,28,3,28,18,37,43,19,61,18,34-12,45-10,30,10,36,23,28,33,38,32,55,5.07,69,0,30-9,46-32,5-48,18-58,22-20,46-21,41-19,39-29-5.75-34-40.88-33-70.12,15-90.12,31-21,16-38-1-43-14-54-11S805,134.26,786,142.26Z" />
  <path class="l" d="M1012.93,229.81c-19,8-51-9-74-7s-65,11-76,20-18,19-18,28,3,28,18,37,43,19,61,18,34-12,45-10,30,10,36,23,28,33,38,32,55,5.07,69,0,30-9,46-32,5-48,18-58,22-20,46-21,41-19,39-29-5.75-34-40.87-33-70.12,15-90.12,31-21,16-38-1-43-14-54-11S1031.93,221.81,1012.93,229.81Z" />
  <path class="mx" d="M1309.49,113.92c-19,8-51-9-74-7s-65,11-76,20-18,19-18,28,3,28,18,37,43,19,61,18,34-12,45-10,30,10,36,23,28,33,38,32,55,5.07,69,0,30-9,46-32,5-48,18-58,22-20,46-21,41-19,39-29-5.75-34-40.87-33-70.12,15-90.12,31-21,16-38-1-43-14-54-11S1328.49,105.92,1309.49,113.92Z" />
  <path class="nx" d="M1290.78,171.34c-19,8-51-9-74-7s-65,11-76,20-18,19-18,28,3,28,18,37,43,19,61,18,34-12,45-10,30,10,36,23,28,33,38,32,55,5.07,69,0,30-9,46-32,5-48,18-58,22-20,46-21,41-19,39-29-5.75-34-40.87-33-70.12,15-90.12,31-21,16-38-1-43-14-54-11S1309.78,163.34,1290.78,171.34Z" />
  <path class="ox" d="M1540.41,90.23c-19,8-51-9-74-7s-65,11-76,20-18,19-18,28,3,28,18,37,43,19,61,18,34-12,45-10,30,10,36,23,28,33,38,32,55,5.07,69,0,30-9,46-32,5-48,18-58,22-20,46-21,41-19,39-29-5.75-34-40.87-33-70.12,15-90.12,31-21,16-38-1-43-14-54-11S1559.41,82.23,1540.41,90.23Z" />
  <path class="px" d="M1693.83,171.34c-19,8-51-9-74-7s-65,11-76,20-18,19-18,28,3,28,18,37,43,19,61,18,34-12,45-10,30,10,36,23,28,33,38,32,55,5.07,69,0,30-9,46-32,5-48,18-58,22-20,46-21,41-19,39-29-5.75-34-40.87-33-70.12,15-90.12,31-21,16-38-1-43-14-54-11S1712.83,163.34,1693.83,171.34Z" />
  <path class="qx" d="M1893.1,90.23c19,8,51-9,74-7s65,11,76,20,18,19,18,28-3,28-18,37-43,19-61,18-34-12-45-10-30,10-36,23-28,33-38,32-55,5.07-69,0-30-9-46-32-5-48-18-58-22-20-46-21-41-19-39-29,5.75-34,40.88-33,70.13,15,90.13,31,21,16,38-1,43-14,54-11S1874.1,82.23,1893.1,90.23Z" />
  <path class="rx" d="M1720.35,117.94c19,8,51-9,74-7s65,11,76,20,18,19,18,28-3,28-18,37-43,19-61,18-34-12-45-10-30,10-36,23-28,33-38,32-55,5.07-69,0-30-9-46-32-5-48-18-58-22-20-46-21-41-19-39-29,5.75-34,40.88-33,70.13,15,90.13,31,21,16,38-1,43-14,54-11S1701.35,109.94,1720.35,117.94Z" />
  <path class="sx" d="M1575.92,151.65c19,8,51-9,74-7s65,11,76,20,18,19,18,28-3,28-18,37-43,19-61,18-34-12-45-10-30,10-36,23-28,33-38,32-55,5.07-69,0-30-9-46-32-5-48-18-58-22-20-46-21-41-19-39-29,5.75-34,40.88-33,70.13,15,90.13,31,21,16,38-1,43-14,54-11S1556.92,143.65,1575.92,151.65Z" />
  <path class="tx" d="M1011.67,113.92c-19,8-51-9-74-7s-65,11-76,20-18,19-18,28,3,28,18,37,43,19,61,18,34-12,45-10,30,10,36,23,28,33,38,32,55,5.07,69,0,30-9,46-32,5-48,18-58,22-20,46-21,41-19,39-29-5.75-34-40.87-33-70.12,15-90.12,31-21,16-38-1-43-14-54-11S1030.67,105.92,1011.67,113.92Z" />
  <path class="ux" d="M1205.07,224.36c19,8,51-9,74-7s65,11,76,20,18,19,18,28-3,28-18,37-43,19-61,18-34-12-45-10-30,10-36,23-28,33-38,32-55,5.07-69,0-30-9-46-32-5-48-18-58-22-20-46-21-41-19-39-29,5.75-34,40.88-33,70.12,15,90.12,31,21,16,38-1,43-14,54-11S1186.07,216.36,1205.07,224.36Z" />
</svg>
